<?xml version="1.0" encoding="UTF-8"?>
<svg id="Layer_2" data-name="Layer 2" xmlns="http://www.w3.org/2000/svg" viewBox="0 0 943.42 619.99">
  <defs>
    <style>
      .cls-1 {
        fill: #fff;
      }
    </style>
  </defs>
  <g id="Layer_1-2" data-name="Layer 1">
    <g>
      <path class="cls-1" d="m370.82,504.18c-4.33,1.94-5.25,5.71-6.63,8.83-3.49,7.92-6.5,16.04-9.83,24.03-6.42,15.43-16.43,28.12-29.76,38.14-7.83,5.88-16.57,9.73-26.32,11.41-14.54,2.51-26.31-2-35.27-13.57-10.78-13.93-14.16-29.93-11.91-47.13,1.7-13.03,6.6-25.12,12.75-36.61,5.73-10.71,11.03-12.04,20.71-5.23,8.88,6.26,18.53,7.01,28.63,5.15,26.63-4.9,47.85-25.91,53.06-53.3,2.67-14.04,3.96-28.34,6.04-42.49,1.18-7.98,3.95-15.47,8.06-22.42,1.94-3.29,4.37-6.31,8.69-5.26,4.4,1.07,4.86,4.87,4.99,8.72.47,13.39-1.55,26.58-3.14,39.8-2.51,20.97-.71,41.24,9.02,60.32,9.53,18.69,23.53,32.91,42.51,42.11,24.24,11.75,49.98,18.21,76.58,21.35,85.03,10.02,168.05-.57,249.71-24.76,26.49-7.85,52.67-16.61,78.66-25.95,2.7-.97,6.01-1.16,7.92-4.44-3.23-3.88-7.97-4.4-12.37-5.09-35.44-5.53-55.73-45.23-37.87-79.61,14.82-28.53,38.91-45.43,70.78-49.4,36.15-4.5,63.78,31.3,53.06,67.7-2.17,7.38-5.04,14.53-10.26,20.37-7.79,8.73-14.58,7.37-18-3.56-.99-3.17-1.69-6.45-2.22-9.73-2.7-16.71-12.75-28.16-26.37-37.06-1.38-.9-2.92-1.63-4.47-2.21-11.44-4.28-20.95,2-21.62,14.23-.17,3.05.35,5.99,1.46,8.8,6.32,16.02,15,30.45,28.38,41.64,5.18,4.34,11.11,7.47,17.73,8.79,12.14,2.43,23.18.27,32.29-8.78,2.84-2.82,5.63-5.71,8.73-8.21,4.01-3.22,7.79-1.87,8.64,3.08.38,2.21.22,4.74-.46,6.87-2.04,6.38-3.12,12.95-4.16,19.51-2.46,15.46-10.96,25.96-25.19,32.31-22.49,10.03-44.82,20.43-67.29,30.51-51.33,23.02-103,45.21-156.93,61.64-56.11,17.1-113.22,27.33-172.14,24.96-29.22-1.17-57.55-6.3-83.78-20.08-16.43-8.63-30.83-19.73-41.99-34.73-10.81-14.54-17-30.8-18.14-48.94-.24-3.84.1-7.84-2.32-11.73Z"/>
      <path class="cls-1" d="m376.73,202.65c-3.54,7.24-6.82,13.65-9.22,20.56-4.28,12.3-9.67,24.09-17.4,34.68-13.47,18.46-32.02,26.41-54.45,25.82-13.17-.35-22.87-6.59-28.21-18.8-6.78-15.51-6.49-31.76-4.35-48.1.29-2.23,1.2-4.52,3.08-6.14,2.3-1.98,4.92-2.78,6.96-.08,8.12,10.72,19.72,10.76,30.9,8.89,22.69-3.78,41.81-15.01,57.71-31.5,7.22-7.48,10.76-16.63,10.41-27.23-.6-17.62-2.42-35.19-1.76-52.88.52-14.14,6.51-24.85,18.26-32.48,1.93-1.25,3.92-2.59,6.53-1.85,2.34,3.05.95,6.39.5,9.54-4.15,29.11-1.31,57.76,5.41,86.18,5.47,23.1,19.24,39.83,39.54,51.52,21.54,12.41,45.1,18.31,69.62,19.11,79.83,2.61,152.26-20.44,218.26-64.77,7.09-4.77,11.65-11.8,16.26-18.71,1.67-2.51,2.89-6.05,6.22-5.65,3.22.39,3.91,4.17,5.13,6.85,1.96,4.28,2.91,8.83,3.33,13.5,1.81,20.38,11.89,30.05,32.44,31.04,15.39.74,28.7-4.67,40.59-14.03,7.09-5.58,13.13-12.27,19.39-18.72,6.27-6.46,12.75-12.7,20.62-17.25,20.3-11.75,39.62-6.72,50.9,13.73,10.86,19.71,13.14,40.27,4.43,61.49-.88,2.15-1.92,4.25-3.07,6.27-13.65,23.74-33.53,26.53-53.12,7.53-6.73-6.53-12.22-14.06-17.82-21.52-2-2.66-3.94-5.39-6.19-7.83-6.81-7.37-10.2-7.24-16.87.6-7.34,8.63-14.91,17.05-23.46,24.52-8.63,7.55-18.16,13.45-29.57,15.89-25.21,5.39-44.52-12.72-40.72-38.27.43-2.92,1.81-5.75.61-9.25-4.24.4-6.69,3.78-9.66,6.03-45.6,34.53-94.65,63.19-147.23,85.63-27.44,11.71-56,19.28-86.2,18.64-16.45-.35-32.45-3.23-47.66-9.67-29.24-12.38-49.34-33.21-58.83-63.86-2.96-9.56-4.98-19.33-7.08-29.08-.7-3.25-.88-6.62-4.21-10.34Zm501.98-21.32c7.76,14.56,25.8,26.87,37.77,26.15-9.91-12.25-19.93-23.07-37.77-26.15Z"/>
      <path class="cls-1" d="m26.4,215.03c1.71-22.29,6.58-48.58,19.13-73.07,9.88-19.28,19.94-38.42,34.01-55.11,1.07-1.27,2.04-2.63,3.14-3.88,2.99-3.42,6.36-6.15,11.26-4.18,4.03,1.61,6.14,7.35,5.04,12.93-.99,5.06-3.7,9.23-6.74,13.23-6.84,9.02-13.85,17.91-20.53,27.05-7.73,10.58-13.36,22.14-16.28,35.06-2.51,11.11-.43,21.14,5.64,30.49,8.95,13.78,21.82,22.33,37.43,26.53,40.11,10.79,78.49,5.23,115.24-13.3,11.91-6,23.22-13.06,33.38-21.78,2.77-2.38,5.41-4.96,7.73-7.77,2.08-2.52,4.37-5.39,2.6-9.01-1.64-3.37-4.82-4.34-8.35-4.41-6.33-.14-12.67-.17-18.91,1.12-12.38,2.55-24.69,5.45-37.1,7.79-9.79,1.84-19.62,3.71-29.71,1.75-12.7-2.46-19.27-9.29-20.59-22.09-.95-9.18,1.01-18,4.48-26.34,16.74-40.11,42.32-73.72,75.69-101.43,5.64-4.68,11.96-8.43,19.12-10.53,11.83-3.46,20.75-.38,27.81,9.72,8.12,11.6,9.94,24.58,7.68,38.16-1.59,9.56-5.1,18.6-9.99,27.03-1.85,3.19-4.1,6.14-7.25,8.14-4.22,2.68-8.29,2.2-11.65-1.57-1.97-2.21-3.34-4.95-5.08-7.38-8.31-11.62-21.84-15.78-35.37-10.98-8.74,3.1-15.59,8.86-21.63,15.62-7.36,8.25-13.64,17.28-17.08,27.91-3.17,9.8,1.26,16.46,11.49,17.42,9.08.85,17.87-1.21,26.64-3.22,11.67-2.67,23.23-5.79,35.07-7.73,7.63-1.25,15.28-1.56,22.89-.84,16.37,1.53,24.57,13.39,20.92,29.52-1.12,4.94-3.2,9.44-5.5,13.88-14.06,27.24-34.8,48.61-59.17,66.64-35.66,26.39-75.47,43.3-119.22,50.65-11.53,1.94-23.22,1.93-34.68-1.25-14.24-3.95-24.91-12.33-31.62-25.56-7.07-13.93-10.13-28.79-9.97-49.19Z"/>
      <path class="cls-1" d="m.11,482.4c-1.37-36.52,10.7-71.55,27.27-105.4,3.41-6.96,7.22-9.43,11.05-8.1,4.36,1.5,5.65,6.14,4.09,13.86-1,4.95-3.03,9.51-4.95,14.11-5.28,12.63-8.93,25.68-11.99,39.04-8.4,36.65,17.99,82.72,58.24,92.49,32.21,7.82,64.63,8.65,96.78-.46,17.32-4.9,32.14-14.14,44.35-27.63,6.91-7.63,8.87-16.15,6.85-25.88-1.29-6.21-3.37-12.2-6.02-17.96-6.4-13.9-11.64-28.36-19.49-41.57-7.77-13.09-5.25-41.35,12.72-56.47,5.2-4.38,9.6-3.58,13.39,2.04,1.11,1.64,1.99,3.47,2.73,5.31,13.69,33.74,20.98,68.65,19.38,105.24-.85,19.55-7.07,37.12-18.12,53.13-28.64,41.49-68.24,66.51-117,77.5-16.95,3.82-34.11,5.58-51.55,2.76-18.82-3.05-33.35-12.65-44.6-27.71-12.33-16.5-17.5-35.67-20.71-55.57-1.97-12.21-2.63-24.49-2.4-38.74Z"/>
      <path class="cls-1" d="m538.55,511.61c-5.25-.36-11.4-10.05-9.27-15.99,2.96-8.28,8.12-15.22,14.4-21.32,6.49-6.3,13.97-11.28,21.81-15.7,53.3-30.08,105.06-62.75,157.76-93.83,15.22-8.98,29.29-19.61,42.66-31.16,2.01-1.74,3.97-3.55,6.06-5.2,3.09-2.46,6.51-3.73,9.93-.84,3.22,2.72,1.78,5.96.45,9.12-3.15,7.46-7.7,13.94-13.41,19.65-11.58,11.57-24.48,21.54-37.95,30.74-12.36,8.43-24.8,16.82-37.75,24.27-43.55,25.06-85.45,52.76-127.89,79.59-7.87,4.98-15.91,9.71-21.53,17.48-1.14,1.58-2.45,3.22-5.26,3.2Z"/>
      <path class="cls-1" d="m551.17,142.78c1.88-7.29,3.18-13.09,4.88-18.78,5.02-16.82,13.16-31.96,25.16-44.88,5.74-6.18,12.43-11.05,20.47-13.86,8.22-2.87,12.94-1.5,18.47,5.3,4.88,6,6.42,13,6.16,20.56-.29,8.46-2.55,16.39-6.28,23.94-.75,1.52-1.96,2.84-3.92,2.3-1.83-.51-2.75-2.16-2.55-3.82.59-5.03.39-9.94-.94-14.83-2.26-8.3-7.2-10.65-14.97-6.77-7.4,3.69-12.6,9.77-16.8,16.67-8.91,14.65-13.74,30.97-18.3,47.28-2.94,10.55-4.59,21.46-6.77,32.21-.66,3.28-1.26,6.58-3.66,9.11-1.41,1.48-3.23,2.58-5.34,2.01-2.41-.65-2.46-2.83-2.54-4.86-.64-15.6-5.25-30.08-12.58-43.74-4.42-8.24-9.66-15.93-15.98-22.86-2.61-2.86-5.29-4.49-9.6-3.51-12.13,2.75-28.47-7.25-31.72-19.3-1.03-3.82-1.72-7.9-1.58-11.82.41-11.48,5.35-20.71,15.85-25.87,10.36-5.1,20.35-2.65,28.97,4.22,10.12,8.07,16.58,18.95,21.09,30.98,2.45,6.54,4.87,13.1,6.94,19.77,1.95,6.26,3.43,12.67,5.52,20.56Z"/>
      <path class="cls-1" d="m261.24,287.87c-.46,6.45-1.55,12.97-5.22,18.79-5.29,8.37-12.59,10.45-21.36,5.91-2.95-1.52-5.64-3.54-8.55-5.14-9.75-5.39-16.96-3.45-22.52,6.32-2.13,3.74-3.56,7.87-5.41,11.77-5.67,11.92-14.01,15.05-26.14,9.77-4.3-1.87-8.1-4.54-11.72-7.52-12.69-10.43-12.75-21.47-2.98-36.05,3.52-5.26,7.04-6.01,13.05-3.57,4.29,1.74,8.29,4.21,12.43,6.32,14.67,7.48,24.07,3.87,29.71-11.35,1.5-4.05,2.75-8.24,4.68-12.08,3.56-7.09,8.5-9.33,15.59-6.26,7.01,3.04,13.95,6.18,21.1,8.89,6.43,2.44,7.29,8.03,7.33,14.2Z"/>
      <path class="cls-1" d="m939.18,4.73c-.72,2.26-1.49,5.15-2.57,7.92-5.64,14.38-16.27,24.11-29.66,31.04-13.88,7.18-27.88,14.12-41.33,22.09-13.16,7.79-26.34,15.55-39.51,23.32-.57.34-1.1.75-1.68,1.08-2.82,1.6-5.73,4.46-8.94,1.44-2.69-2.52-.54-5.52.36-8.3,4.35-13.53,12.14-23.87,25.05-30.79,19.33-10.37,38.15-21.69,57.17-32.64,9.22-5.31,18.39-10.69,27.59-16.03,2.87-1.67,5.61-3.67,9.09-3.84,2.78-.14,4.41,1.12,4.44,4.72Z"/>
      <path class="cls-1" d="m698.71,71.45c.39-1.54.54-4.01,1.6-5.98,3.77-6.97,7.43-14.06,11.92-20.56,4.51-6.53,8.02-6.78,14.02-1.99,7.82,6.24,14.29,13.77,20.22,21.79,3,4.06,3.83,8.27,1.46,12.98-3.56,7.09-6.68,14.43-10.56,21.34-3.13,5.57-6.31,6.36-11.41,2.71-7.53-5.38-14.71-11.28-21.82-17.22-3.71-3.1-5.44-7.42-5.44-13.08Z"/>
      <path class="cls-1" d="m118.44,377.94c5.15-.24,29.26,14.78,31.62,19.62,1.13,2.32.93,4.65-.32,6.68-4.16,6.79-8.17,13.71-12.89,20.1-4.42,5.99-6.76,5.68-13.17,1.44-5.51-3.65-11.49-6.58-17.18-9.97-6.72-4-7.88-6.77-5.24-13.88,2.43-6.54,5.51-12.82,9.28-18.71,1.81-2.83,4.05-5.34,7.89-5.29Z"/>
    </g>
  </g>
</svg>